<mxfile host="app.diagrams.net" modified="2024-03-24T23:56:12.785Z" agent="Mozilla/5.0 (Windows NT 10.0; Win64; x64) AppleWebKit/537.36 (KHTML, like Gecko) Chrome/123.0.0.0 Safari/537.36" version="24.1.0" etag="29DoX9mZyl_NUELSnXhS" type="github">
  <diagram name="PÃ¡gina-1" id="7u036vd7eiV5N1CGjayX">
    <mxGraphModel>
      <root>
        <mxCell id="0" />
        <mxCell id="1" parent="0" />
      </root>
    </mxGraphModel>
  </diagram>
</mxfile>
